<svg width="66" height="66" viewBox="0 0 66 66" fill="none" xmlns="http://www.w3.org/2000/svg">
<rect x="0.75" y="0.5" width="65" height="65" rx="16" fill="white"/>
<path fill-rule="evenodd" clip-rule="evenodd" d="M53.25 31.6744V31.5814C53.25 26.0994 51.0665 20.9891 47.1176 17.1796C44.4938 14.6484 41.3163 12.9376 37.8711 12.129C36.6152 11.8248 35.3304 11.6471 34.0165 11.6047C33.7604 11.596 33.5048 11.592 33.25 11.5926C32.9952 11.592 32.7396 11.596 32.4835 11.6047C31.1696 11.6471 29.8848 11.8248 28.6289 12.129C25.1838 12.9376 22.0062 14.6484 19.3824 17.1796C18.655 17.8813 17.7522 18.8647 17.1128 19.6836C17.0609 19.7344 17.012 19.7894 16.9666 19.8483C14.8296 22.8216 13.5752 26.3524 13.2965 29.9761C13.25 30.4871 13.25 31.0446 13.25 31.5557C13.25 31.5586 13.25 31.5615 13.25 31.5644C13.25 31.5701 13.25 31.5758 13.25 31.5814V31.6744C13.4093 41.5886 23.7274 41.5416 31.4165 41.5066H31.4167C31.8631 41.5045 32.3006 41.5025 32.7268 41.5025C33.1433 41.5025 33.5737 41.5044 34.0152 41.5063C36.0965 41.5153 38.4258 41.5254 40.7255 41.3464C40.8572 41.5209 40.9286 41.7409 40.9142 41.9765C40.7871 44.045 40.3482 47.1448 39.6639 49.6543C39.4013 50.6172 38.5266 51.2608 37.5298 51.3107C36.7717 51.3487 35.9693 51.3842 35.6484 51.3825C35.1601 51.3799 34.6205 50.9012 34.6205 50.2798V45.9766C34.6205 45.1868 34.0165 44.5829 33.2268 44.5829C32.437 44.5829 31.833 45.1868 31.833 45.9766V50.2798C31.833 51.4389 30.8437 51.4089 29.9532 51.3604C29.8718 51.356 29.7891 51.3526 29.7059 51.3492C28.9195 51.317 28.0953 51.2833 28.0328 50.3463L27.6519 45.6336C27.6055 44.8438 26.9086 44.2863 26.1653 44.3328C25.3755 44.3792 24.818 45.0296 24.8645 45.8194L25.2241 49.7133C25.2835 50.4094 25.0242 50.9979 23.7773 50.8152C23.0055 50.7021 22.5157 50.6126 22.3438 49.9123L21.0483 43.5922C20.8984 42.8035 20.2121 42.2914 19.4688 42.3843C18.679 42.4772 18.168 43.2206 18.2609 43.9639C18.4933 45.3744 19.0581 48.4479 19.4637 50.6329C19.7408 52.1256 20.8433 53.3183 22.3397 53.5748C24.5534 53.9542 28.2416 54.4075 33.2268 54.4075C37.7596 54.4075 41.2583 54.0327 43.549 53.6795C45.469 53.3834 46.8794 51.8458 47.2029 49.9302C47.7592 46.6358 48.5898 41.6925 48.8654 39.9221C48.8986 39.6842 48.9293 39.463 48.9576 39.2577C51.4754 37.8242 53.182 35.4853 53.25 31.6744ZM24.6767 36.813C40.3342 36.2523 35.8813 27.8209 31.6743 19.855L31.6743 19.855L31.6742 19.855C31.362 19.2638 31.0512 18.6752 30.75 18.0926C30.2066 17.0414 30.1903 15.6067 30.5938 14.5436C28.7306 14.8408 26.8493 15.4466 25.2419 16.3016C23.8313 17.0473 22.5174 17.9957 21.3336 19.1308C20.4908 19.939 19.7217 20.8189 19.0418 21.757C17.3042 24.2512 16.2612 27.1681 16.0375 30.1667C15.9966 30.5753 16.0144 30.9803 16.0309 31.3561C16.0331 31.4077 16.0354 31.4588 16.0375 31.5092C16.193 35.3134 19.1501 36.8334 22.9596 36.8334L24.6767 36.813ZM27.6519 25.3317C28.6782 25.3317 29.5102 24.4997 29.5102 23.4734C29.5102 22.447 28.6782 21.6151 27.6519 21.6151C26.6256 21.6151 25.7936 22.447 25.7936 23.4734C25.7936 24.4997 26.6256 25.3317 27.6519 25.3317ZM20.7541 30.9066C21.7804 30.9066 22.6124 30.0746 22.6124 29.0483C22.6124 28.022 21.7804 27.19 20.7541 27.19C19.7277 27.19 18.8957 28.022 18.8957 29.0483C18.8957 30.0746 19.7277 30.9066 20.7541 30.9066Z" fill="#DF420C"/>
</svg>
